<?xml version="1.0" encoding="UTF-8" standalone="no"?>
<!-- Generator: Adobe Illustrator 18.1.1, SVG Export Plug-In . SVG Version: 6.00 Build 0)  -->

<svg
   xmlns:dc="http://purl.org/dc/elements/1.1/"
   xmlns:cc="http://creativecommons.org/ns#"
   xmlns:rdf="http://www.w3.org/1999/02/22-rdf-syntax-ns#"
   xmlns:svg="http://www.w3.org/2000/svg"
   xmlns="http://www.w3.org/2000/svg"
   xmlns:sodipodi="http://sodipodi.sourceforge.net/DTD/sodipodi-0.dtd"
   xmlns:inkscape="http://www.inkscape.org/namespaces/inkscape"
   version="1.1"
   id="Capa_1"
   x="0px"
   y="0px"
   viewBox="0 0 32 32"
   style="enable-background:new 0 0 32 32;"
   xml:space="preserve"
   inkscape:version="0.91 r13725"
   sodipodi:docname="status.svg"><metadata
     id="metadata6124"><rdf:RDF><cc:Work
         rdf:about=""><dc:format>image/svg+xml</dc:format><dc:type
           rdf:resource="http://purl.org/dc/dcmitype/StillImage" /><dc:title></dc:title></cc:Work></rdf:RDF></metadata><defs
     id="defs6122" /><sodipodi:namedview
     pagecolor="#ffffff"
     bordercolor="#666666"
     borderopacity="1"
     objecttolerance="10"
     gridtolerance="10"
     guidetolerance="10"
     inkscape:pageopacity="0"
     inkscape:pageshadow="2"
     inkscape:window-width="1235"
     inkscape:window-height="908"
     id="namedview6120"
     showgrid="false"
     inkscape:zoom="10.429825"
     inkscape:cx="14.945574"
     inkscape:cy="17.429716"
     inkscape:window-x="0"
     inkscape:window-y="0"
     inkscape:window-maximized="0"
     inkscape:current-layer="Capa_1" /><g
     id="g6090" /><g
     id="g6092" /><g
     id="g6094" /><g
     id="g6096" /><g
     id="g6098" /><g
     id="g6100" /><g
     id="g6102" /><g
     id="g6104" /><g
     id="g6106" /><g
     id="g6108" /><g
     id="g6110" /><g
     id="g6112" /><g
     id="g6114" /><g
     id="g6116" /><g
     id="g6118" /><g
     transform="matrix(0.85156858,0,0,0.7845571,2.998369,3.0051032)"
     style="font-style:normal;font-variant:normal;font-weight:normal;font-stretch:normal;font-size:41.58349609px;line-height:125%;font-family:'Arial Black';-inkscape-font-specification:'Arial Black, Normal';text-align:start;letter-spacing:0px;word-spacing:0px;writing-mode:lr-tb;text-anchor:start;fill:#c5c5c5;fill-opacity:1;stroke:none;stroke-width:1px;stroke-linecap:butt;stroke-linejoin:miter;stroke-opacity:1"
     id="text6801"><path
       d="m 18.675044,22.740962 -7.715688,0 0,-0.771569 q 0,-1.969531 0.446698,-3.187797 0.446697,-1.238571 1.319788,-2.253793 0.893396,-1.015222 3.979671,-3.573582 1.64466,-1.340093 1.64466,-2.456837 0,-1.1167444 -0.670047,-1.7258777 -0.649742,-0.6294377 -1.989835,-0.6294377 -1.441615,0 -2.395924,0.9543088 -0.934004,0.9543086 -1.197962,3.3299286 L 4.2182815,11.451693 Q 4.6243703,7.1065421 7.3654699,4.4669647 10.126874,1.8070829 15.812118,1.8070829 q 4.426368,0 7.147163,1.8477042 3.695408,2.4974463 3.695408,6.6598569 0,1.725877 -0.954308,3.329928 -0.954309,1.604051 -3.898453,3.918757 -2.050749,1.624356 -2.598969,2.619273 -0.527915,0.974614 -0.527915,2.55836 z m -7.979646,2.050749 8.263908,0 0,7.289294 -8.263908,0 0,-7.289294 z"
       style="fill:#c5c5c5;fill-opacity:1"
       id="path6806"
       inkscape:connector-curvature="0" /></g></svg>