<?xml version="1.0" encoding="UTF-8" standalone="no"?>
<svg
   xmlns:dc="http://purl.org/dc/elements/1.1/"
   xmlns:cc="http://creativecommons.org/ns#"
   xmlns:rdf="http://www.w3.org/1999/02/22-rdf-syntax-ns#"
   xmlns:svg="http://www.w3.org/2000/svg"
   xmlns="http://www.w3.org/2000/svg"
   xmlns:sodipodi="http://sodipodi.sourceforge.net/DTD/sodipodi-0.dtd"
   xmlns:inkscape="http://www.inkscape.org/namespaces/inkscape"
   height="32px"
   id="Layer_1"
   style="enable-background:new 0 0 32 32;"
   version="1.1"
   viewBox="0 0 32 32"
   width="32px"
   xml:space="preserve"
   inkscape:version="0.91 r13725"
   sodipodi:docname="aquarium.svg"><metadata
     id="metadata4190"><rdf:RDF><cc:Work
         rdf:about=""><dc:format>image/svg+xml</dc:format><dc:type
           rdf:resource="http://purl.org/dc/dcmitype/StillImage" /><dc:title></dc:title></cc:Work></rdf:RDF></metadata><defs
     id="defs4188" /><sodipodi:namedview
     pagecolor="#ffffff"
     bordercolor="#666666"
     borderopacity="1"
     objecttolerance="10"
     gridtolerance="10"
     guidetolerance="10"
     inkscape:pageopacity="0"
     inkscape:pageshadow="2"
     inkscape:window-width="1643"
     inkscape:window-height="893"
     id="namedview4186"
     showgrid="false"
     inkscape:zoom="18.539456"
     inkscape:cx="20.415878"
     inkscape:cy="13.728234"
     inkscape:window-x="0"
     inkscape:window-y="0"
     inkscape:window-maximized="0"
     inkscape:current-layer="Layer_1" /><g
     transform="scale(0.88930923,1.1244683)"
     style="font-style:normal;font-variant:normal;font-weight:bold;font-stretch:normal;font-size:23.11789703px;line-height:125%;font-family:sans-serif;-inkscape-font-specification:'sans-serif, Bold';text-align:start;letter-spacing:0px;word-spacing:0px;writing-mode:lr-tb;text-anchor:start;fill:#000000;fill-opacity:1;stroke:none;stroke-width:1px;stroke-linecap:butt;stroke-linejoin:miter;stroke-opacity:1"
     id="text4211"><path
       d="m 19.16426,20.218424 -4.48135,0 -1.162668,-3.397699 -6.2309958,0 -1.1626677,3.397699 -4.3684698,0 6.2084196,-16.8078853 4.9893117,0 6.20842,16.8078853 z m -6.693805,-6.479333 -2.065711,-6.0278107 -2.0657105,6.0278107 4.1314215,0 z"
       id="path4216"
       style="" /><path
       d="m 33.703249,24.869095 -4.063693,0 0,-5.892355 q -0.993347,0.80145 -1.941542,1.196532 -0.948195,0.395081 -2.133438,0.395081 -2.325336,0 -3.713764,-1.78351 -1.37714,-1.783509 -1.37714,-4.808703 0,-1.614189 0.462809,-2.855873 0.474097,-1.2529719 1.286836,-2.1447267 0.767586,-0.8466026 1.862526,-1.3094121 1.094939,-0.4740975 2.189879,-0.4740975 1.072363,0 1.794798,0.2483368 0.733722,0.2370487 1.54646,0.6659941 l 0.146745,-0.5644018 3.939524,0 0,17.3271352 z m -4.063693,-8.149962 0,-6.219708 q -0.428945,-0.180608 -0.903042,-0.259625 -0.474098,-0.07902 -0.869179,-0.07902 -1.602901,0 -2.404352,1.004635 -0.80145,0.993347 -0.80145,2.765569 0,1.862526 0.643418,2.709129 0.643418,0.835314 2.06571,0.835314 0.553114,0 1.173956,-0.203184 0.620842,-0.214473 1.094939,-0.553114 z"
       style=""
       id="path4218" /></g></svg>